<?xml version="1.0" encoding="utf-8"?>
<!-- Generator: Adobe Illustrator 24.0.1, SVG Export Plug-In . SVG Version: 6.00 Build 0)  -->
<svg version="1.1" id="Layer_1" xmlns="http://www.w3.org/2000/svg" xmlns:xlink="http://www.w3.org/1999/xlink" x="0px" y="0px"
	 viewBox="0 0 612 792" style="enable-background:new 0 0 612 792;" xml:space="preserve">
<style type="text/css">
	.st0{stroke:#000000;stroke-miterlimit:10;}
	.st1{fill:#00AEEF;}
	.st2{fill:none;}
	.st3{font-family:'Elephant-Regular';}
	.st4{font-size:16px;}
</style>
<path class="st0" d="M197.64,241.83l36.32-72.25l44.29,72.25h-20.23c5.08-1.37,10.77,0.17,6.33-5.53l-29.38-48.25l-21.99,48.51
	c-1.41,5.44,25.59,5.44-4.07,5.27H197.64z"/>
<path class="st1" d="M302.43,178.04"/>
<path class="st0" d="M252.34,177.68l37.51,63.04l12.54,0.19c3.94,0.05,6.53,0.9,9.38-4.3c0.81-1.48,1.77-2.88,2.92-4.13l0.24-0.26
	l-20.64-0.29l-37.14-62.21l-9-0.14l-6.28,9.21l4.9,7.53L252.34,177.68z"/>
<rect x="194.86" y="248.29" class="st2" width="116.57" height="15.86"/>
<text transform="matrix(1 0 0 1 194.8569 259.9496)" class="st3 st4">MOVIE LIST</text>
<polygon class="st2" points="342.29,279.71 346.57,279.71 346.57,279.71 342.29,279.71 "/>
</svg>
